Simulation
nRows=23
nColumns=15
endheader
time  TH_x TH_y TH_z SC_y  SC_z  SC_x  AC_y  AC_z  AC_x  GH_y  GH_z  GH_yy  EL_x  PS_y
8.073123595505619  0.000000  0.000000  0.000000  -24.012863207892913  5.765771525888268  3.537853558887324  59.35550844171255  4.914108877395849  4.5614755484368406  -84.71147223062142  3.2906228600728733  139.79755848358576  16.77812280280339  120.000000
8.113288389513109  0.000000  0.000000  0.000000  -23.753108077101043  5.769632269491783  3.339461381778268  59.40127618294258  4.479396911462463  4.70870134870538  -64.74502370844576  3.1183137214035934  119.32081281108108  16.289154968112772  120.000000
8.153453183520599  0.000000  0.000000  0.000000  -23.468331244965444  5.784134481463566  3.1577641815987603  59.46852019548425  4.098899720207222  4.891494954347926  -42.77090383940002  3.3030527072591322  96.64202280014017  15.743201508515275  120.000000
8.19361797752809  0.000000  0.000000  0.000000  -23.161840875992883  5.8218228543031625  3.018273686731707  59.56341209209097  3.7997362407301183  5.111936189383559  -23.084964335810977  3.930097036188573  76.05528042439887  15.160393263318365  120.000000
8.23378277153558  0.000000  0.000000  0.000000  -22.840327609234926  5.897003256759913  2.943647283691218  59.692171946120475  3.605152591758317  5.3696674932119866  -8.214890300276945  4.981047325488524  60.090893849483535  14.563708528254246  120.000000
8.273947565543072  0.000000  0.000000  0.000000  -22.51465219553516  6.023431305764723  2.952865491025668  59.85788585104799  3.5311278079983843  5.663860702228186  2.168648626022774  6.395901340492693  48.42785604375075  13.97628115656524  120.000000
8.314112359550561  0.000000  0.000000  0.000000  -22.19822624519697  6.209693630850935  3.058914663488484  60.06113024614557  3.5844091473967357  5.993889713001583  9.292118016532163  8.12211999279956  39.85441844325302  13.418294655299487  120.000000
8.354277153558053  0.000000  0.000000  0.000000  -21.90441963667303  6.457825887256745  3.266652122812357  60.30187196276695  3.7621837370692592  6.361323589242542  14.20319298796059  10.118302380714185  33.34477688649839  12.905270914304584  120.000000
8.394441947565543  0.000000  0.000000  0.000000  -21.64504408905805  6.765673760976337  3.5745082126824297  60.5795332140441  4.052366666253574  6.769744731640512  17.62238240162115  12.347819836929554  28.206845632908077  12.447328745403118  120.000000
8.434606741573035  0.000000  0.000000  0.000000  -21.429432973730595  7.127374626527246  3.977479320953696  60.89234888667343  4.436363778750236  7.222178981565449  20.01582566755382  14.77501696014415  24.00715149135939  12.048635490375444  120.000000
8.474771535580524  0.000000  0.000000  0.000000  -21.2645159098728  7.534708276598897  4.468770229784885  61.236759919476086  4.892167183878637  7.72019186056164  21.68464848673849  17.363494295804834  20.478795252233468  11.70771728714264  120.000000
8.514936329588014  0.000000  0.000000  0.000000  -21.15452246468762  7.978239966753884  5.040789080273952  61.60807659478631  5.397143836973662  8.26295680539927  22.829362296826577  20.076265486261512  17.453929254886692  11.419445708235076  120.000000
8.555101123595506  0.000000  0.000000  0.000000  -21.101065071777935  8.448448011933104  5.685686450806783  62.00111855125923  5.929596790952727  8.847940610690129  23.589720863524484  22.876750526713135  14.821726630127419  11.176933235820997  120.000000
8.595265917602996  0.000000  0.000000  0.000000  -21.1036887438867  8.936284111781783  6.395730445172881  62.41013262322254  6.469512835170395  9.471219949704512  24.06740844583745  25.73017223699522  12.504120846915686  10.973507939700044  120.000000
8.635430711610487  0.000000  0.000000  0.000000  -21.159952830795003  9.432561474897275  7.163184397197491  62.82852778463913  6.999772035304281  10.126535319293277  24.335706998941365  28.604337901490904  10.445266684106201  10.80358976107009  120.000000
8.675595505617977  0.000000  0.000000  0.000000  -21.267136509166605  9.929011365047106  7.98000726727898  63.24861720235145  7.5062691296389366  10.805370890652252  24.445852016202966  31.469445223907897  8.60487351778596  10.662380424579048  120.000000
8.715760299625469  0.000000  0.000000  0.000000  -21.423645414221124  10.418883581835368  8.837335499152417  63.660892582381535  7.977575203861691  11.49688733777829  24.432177816594127  34.29766662837544  6.953663240826379  10.546177432503102  120.000000
8.755925093632959  0.000000  0.000000  0.000000  -21.6280688230711  10.896890395046857  9.725261558644775  64.05479875973843  8.404723713329432  12.188524725873998  24.318739135449093  37.0630942104635  5.467970170008374  10.451941826840644  120.000000
8.79608988764045  0.000000  0.000000  0.000000  -21.877274066277078  11.358705283331798  10.633263760099585  64.420932410606  8.781410328675776  12.867481686429606  24.12465126205226  39.742379856815006  4.126000366482794  10.377593306294601  120.000000
8.83625468164794  0.000000  0.000000  0.000000  -22.165565759581078  11.800405556042893  11.550471666448134  64.75223045323132  9.104369896698664  13.52232855137342  23.865941966344547  42.31477409942681  2.9075762250630413  10.32213428855302  120.000000
8.87641947565543  0.000000  0.000000  0.000000  -22.485317571461838  12.21845109257112  12.465462982808559  65.04409839723047  9.373184509614331  14.143594502937153  23.55611066302713  44.76193029918844  1.7947184040964645  10.284863945671473  120.000000
8.916584269662922  0.000000  0.000000  0.000000  -22.82799689342925  12.609814670021978  13.366340740112927  65.29397726803698  9.589930596603818  14.723684294688294  23.206686557158918  47.06786076794714  0.7723432954262932  10.264974628785637  120.000000
8.956749063670411  0.000000  0.000000  0.000000  -23.18498075587508  12.97215657566935  14.241350385190003  65.50106650888178  9.758930512071675  15.256900144244703  22.828303285072572  49.219393692860294  -0.17155537166937723  10.26101928608204  120.000000
